<svg width="141" height="20" viewBox="0 0 141 20" fill="none" xmlns="http://www.w3.org/2000/svg">
<path d="M0.401508 11.1006H4.83251C4.90251 11.5346 5.10551 11.9126 5.44151 12.2346C5.77751 12.5566 6.22551 12.8086 6.78551 12.9906C7.35951 13.1586 8.03151 13.2426 8.80151 13.2426C9.86551 13.2426 10.7055 13.1096 11.3215 12.8436C11.9375 12.5636 12.2455 12.1576 12.2455 11.6256C12.2455 11.2196 12.0705 10.9046 11.7205 10.6806C11.3705 10.4566 10.6985 10.2956 9.70451 10.1976L6.76451 9.9246C4.59451 9.7286 3.01951 9.2386 2.03951 8.4546C1.05951 7.6566 0.569508 6.5856 0.569508 5.2416C0.569508 4.1496 0.884508 3.2256 1.51451 2.4696C2.15851 1.7136 3.05451 1.1466 4.20251 0.768601C5.36451 0.376601 6.71551 0.180601 8.25551 0.180601C9.76751 0.180601 11.1115 0.397601 12.2875 0.831601C13.4635 1.2516 14.3945 1.8536 15.0805 2.6376C15.7805 3.4216 16.1585 4.3316 16.2145 5.3676H11.8045C11.7485 4.9896 11.5665 4.6676 11.2585 4.4016C10.9645 4.1216 10.5585 3.9116 10.0405 3.7716C9.52251 3.6176 8.89951 3.5406 8.17151 3.5406C7.19151 3.5406 6.41451 3.6736 5.84051 3.9396C5.26651 4.1916 4.97951 4.5696 4.97951 5.0736C4.97951 5.4376 5.14751 5.7316 5.48351 5.9556C5.83351 6.1796 6.45651 6.3336 7.35251 6.4176L10.4815 6.7326C11.9795 6.8726 13.1765 7.1176 14.0725 7.4676C14.9685 7.8036 15.6195 8.2726 16.0255 8.8746C16.4315 9.4766 16.6345 10.2256 16.6345 11.1216C16.6345 12.2276 16.3055 13.1936 15.6475 14.0196C14.9895 14.8316 14.0655 15.4686 12.8755 15.9306C11.6855 16.3786 10.2995 16.6026 8.71751 16.6026C7.09351 16.6026 5.65851 16.3786 4.41251 15.9306C3.18051 15.4686 2.21451 14.8246 1.51451 13.9986C0.814508 13.1586 0.443508 12.1926 0.401508 11.1006ZM18.4377 0.0966007H22.7427V16.2666H18.4377V0.0966007ZM27.1317 3.9186C28.2937 3.9186 29.2737 4.1496 30.0717 4.6116C30.8837 5.0736 31.5067 5.7246 31.9407 6.5646C32.3747 7.4046 32.5917 8.3986 32.5917 9.5466V16.2666H28.2867V10.1766C28.2867 9.2806 28.0557 8.5946 27.5937 8.1186C27.1457 7.6426 26.4947 7.4046 25.6407 7.4046C25.0527 7.4046 24.5347 7.5306 24.0867 7.7826C23.6527 8.0346 23.3167 8.3916 23.0787 8.8536C22.8547 9.3156 22.7427 9.8616 22.7427 10.4916L21.3987 9.7986C21.5667 8.5246 21.9237 7.4536 22.4697 6.5856C23.0157 5.7036 23.6877 5.0386 24.4857 4.5906C25.2977 4.1426 26.1797 3.9186 27.1317 3.9186ZM45.639 16.2666L45.093 11.9406L45.66 10.2816L45.093 8.6226L45.639 4.2756H50.091L49.335 10.2606L50.091 16.2666H45.639ZM46.647 10.2816C46.451 11.5416 46.059 12.6476 45.471 13.5996C44.897 14.5516 44.162 15.2936 43.266 15.8256C42.384 16.3436 41.376 16.6026 40.242 16.6026C39.066 16.6026 38.03 16.3436 37.134 15.8256C36.252 15.2936 35.559 14.5516 35.055 13.5996C34.551 12.6336 34.299 11.5276 34.299 10.2816C34.299 9.0076 34.551 7.8946 35.055 6.9426C35.559 5.9906 36.252 5.2486 37.134 4.7166C38.03 4.1846 39.066 3.9186 40.242 3.9186C41.376 3.9186 42.384 4.1846 43.266 4.7166C44.162 5.2346 44.904 5.9696 45.492 6.9216C46.08 7.8596 46.465 8.9796 46.647 10.2816ZM38.646 10.2816C38.646 10.8696 38.765 11.3946 39.003 11.8566C39.255 12.3186 39.598 12.6826 40.032 12.9486C40.466 13.2006 40.963 13.3266 41.523 13.3266C42.111 13.3266 42.664 13.2006 43.182 12.9486C43.7 12.6826 44.155 12.3186 44.547 11.8566C44.939 11.3946 45.233 10.8696 45.429 10.2816C45.233 9.6796 44.939 9.1476 44.547 8.6856C44.155 8.2236 43.7 7.8596 43.182 7.5936C42.664 7.3276 42.111 7.1946 41.523 7.1946C40.963 7.1946 40.466 7.3276 40.032 7.5936C39.598 7.8596 39.255 8.2236 39.003 8.6856C38.765 9.1476 38.646 9.6796 38.646 10.2816ZM51.5856 4.2756H55.9536L56.6676 8.5596V16.2666H52.3836V8.3076L51.5856 4.2756ZM62.2956 4.0866V7.7406C61.8756 7.6566 61.4766 7.6006 61.0986 7.5726C60.7346 7.5306 60.3986 7.5096 60.0906 7.5096C59.4746 7.5096 58.9076 7.6356 58.3896 7.8876C57.8716 8.1256 57.4516 8.5246 57.1296 9.0846C56.8216 9.6446 56.6676 10.3936 56.6676 11.3316L55.8486 10.3236C55.9606 9.4556 56.1286 8.6436 56.3526 7.8876C56.5766 7.1176 56.8776 6.4386 57.2556 5.8506C57.6476 5.2486 58.1306 4.7796 58.7046 4.4436C59.2786 4.0936 59.9786 3.9186 60.8046 3.9186C61.0426 3.9186 61.2876 3.9326 61.5396 3.9606C61.7916 3.9886 62.0436 4.0306 62.2956 4.0866ZM70.4669 16.6026C69.0109 16.6026 67.7089 16.3366 66.5609 15.8046C65.4269 15.2726 64.5309 14.5306 63.8729 13.5786C63.2149 12.6126 62.8859 11.4926 62.8859 10.2186C62.8859 8.9726 63.2009 7.8806 63.8309 6.9426C64.4609 5.9906 65.3219 5.2486 66.4139 4.7166C67.5199 4.1846 68.7659 3.9186 70.1519 3.9186C71.5939 3.9186 72.8189 4.2336 73.8269 4.8636C74.8489 5.4796 75.6329 6.3546 76.1789 7.4886C76.7389 8.6226 77.0189 9.9596 77.0189 11.4996H66.3509V8.9166H74.6039L73.1969 9.8196C73.1409 9.2036 72.9869 8.6856 72.7349 8.2656C72.4829 7.8316 72.1469 7.5026 71.7269 7.2786C71.3209 7.0546 70.8309 6.9426 70.2569 6.9426C69.6269 6.9426 69.0879 7.0686 68.6399 7.3206C68.1919 7.5726 67.8419 7.9226 67.5899 8.3706C67.3379 8.8046 67.2119 9.3156 67.2119 9.9036C67.2119 10.6596 67.3799 11.3036 67.7159 11.8356C68.0659 12.3536 68.5699 12.7526 69.2279 13.0326C69.8999 13.3126 70.7189 13.4526 71.6849 13.4526C72.5669 13.4526 73.4419 13.3406 74.3099 13.1166C75.1919 12.8786 75.9899 12.5496 76.7039 12.1296V14.8596C75.8779 15.4196 74.9329 15.8536 73.8689 16.1616C72.8189 16.4556 71.6849 16.6026 70.4669 16.6026ZM78.3107 11.1006H82.7417C82.8117 11.5346 83.0147 11.9126 83.3507 12.2346C83.6867 12.5566 84.1347 12.8086 84.6947 12.9906C85.2687 13.1586 85.9407 13.2426 86.7107 13.2426C87.7747 13.2426 88.6147 13.1096 89.2307 12.8436C89.8467 12.5636 90.1547 12.1576 90.1547 11.6256C90.1547 11.2196 89.9797 10.9046 89.6297 10.6806C89.2797 10.4566 88.6077 10.2956 87.6137 10.1976L84.6737 9.9246C82.5037 9.7286 80.9287 9.2386 79.9487 8.4546C78.9687 7.6566 78.4787 6.5856 78.4787 5.2416C78.4787 4.1496 78.7937 3.2256 79.4237 2.4696C80.0677 1.7136 80.9637 1.1466 82.1117 0.768601C83.2737 0.376601 84.6247 0.180601 86.1647 0.180601C87.6767 0.180601 89.0207 0.397601 90.1967 0.831601C91.3727 1.2516 92.3037 1.8536 92.9897 2.6376C93.6897 3.4216 94.0677 4.3316 94.1237 5.3676H89.7137C89.6577 4.9896 89.4757 4.6676 89.1677 4.4016C88.8737 4.1216 88.4677 3.9116 87.9497 3.7716C87.4317 3.6176 86.8087 3.5406 86.0807 3.5406C85.1007 3.5406 84.3237 3.6736 83.7497 3.9396C83.1757 4.1916 82.8887 4.5696 82.8887 5.0736C82.8887 5.4376 83.0567 5.7316 83.3927 5.9556C83.7427 6.1796 84.3657 6.3336 85.2617 6.4176L88.3907 6.7326C89.8887 6.8726 91.0857 7.1176 91.9817 7.4676C92.8777 7.8036 93.5287 8.2726 93.9347 8.8746C94.3407 9.4766 94.5437 10.2256 94.5437 11.1216C94.5437 12.2276 94.2147 13.1936 93.5567 14.0196C92.8987 14.8316 91.9747 15.4686 90.7847 15.9306C89.5947 16.3786 88.2087 16.6026 86.6267 16.6026C85.0027 16.6026 83.5677 16.3786 82.3217 15.9306C81.0897 15.4686 80.1237 14.8246 79.4237 13.9986C78.7237 13.1586 78.3527 12.1926 78.3107 11.1006ZM96.3469 4.2756H100.652V7.7196L100.463 8.2236V11.5836L100.652 12.5706V19.7316H96.3469V4.2756ZM99.2869 10.2816C99.4689 8.9796 99.8469 7.8596 100.421 6.9216C101.009 5.9696 101.751 5.2346 102.647 4.7166C103.543 4.1846 104.558 3.9186 105.692 3.9186C106.868 3.9186 107.897 4.1846 108.779 4.7166C109.675 5.2486 110.368 5.9906 110.858 6.9426C111.362 7.8946 111.614 9.0076 111.614 10.2816C111.614 11.5276 111.362 12.6336 110.858 13.5996C110.368 14.5516 109.675 15.2936 108.779 15.8256C107.897 16.3436 106.868 16.6026 105.692 16.6026C104.558 16.6026 103.543 16.3436 102.647 15.8256C101.751 15.2936 101.016 14.5516 100.442 13.5996C99.8679 12.6476 99.4829 11.5416 99.2869 10.2816ZM107.288 10.2816C107.288 9.6796 107.162 9.1476 106.91 8.6856C106.672 8.2236 106.329 7.8596 105.881 7.5936C105.447 7.3276 104.95 7.1946 104.39 7.1946C103.816 7.1946 103.27 7.3276 102.752 7.5936C102.234 7.8596 101.779 8.2236 101.387 8.6856C100.995 9.1476 100.694 9.6796 100.484 10.2816C100.694 10.8696 100.995 11.3946 101.387 11.8566C101.779 12.3186 102.234 12.6826 102.752 12.9486C103.27 13.2006 103.816 13.3266 104.39 13.3266C104.95 13.3266 105.447 13.2006 105.881 12.9486C106.329 12.6826 106.672 12.3186 106.91 11.8566C107.162 11.3946 107.288 10.8696 107.288 10.2816ZM120.611 16.6026C119.071 16.6026 117.727 16.3436 116.579 15.8256C115.431 15.2936 114.535 14.5516 113.891 13.5996C113.247 12.6336 112.925 11.5276 112.925 10.2816C112.925 9.0076 113.247 7.8946 113.891 6.9426C114.535 5.9906 115.431 5.2486 116.579 4.7166C117.727 4.1846 119.071 3.9186 120.611 3.9186C122.137 3.9186 123.474 4.1846 124.622 4.7166C125.784 5.2486 126.687 5.9906 127.331 6.9426C127.975 7.8946 128.297 9.0076 128.297 10.2816C128.297 11.5276 127.975 12.6336 127.331 13.5996C126.687 14.5516 125.784 15.2936 124.622 15.8256C123.474 16.3436 122.137 16.6026 120.611 16.6026ZM120.611 13.4316C121.311 13.4316 121.906 13.3056 122.396 13.0536C122.9 12.8016 123.285 12.4376 123.551 11.9616C123.817 11.4856 123.95 10.9256 123.95 10.2816C123.95 9.6096 123.817 9.0426 123.551 8.5806C123.285 8.1046 122.9 7.7406 122.396 7.4886C121.906 7.2366 121.311 7.1106 120.611 7.1106C119.911 7.1106 119.309 7.2366 118.805 7.4886C118.301 7.7406 117.916 8.1046 117.65 8.5806C117.384 9.0426 117.251 9.6026 117.251 10.2606C117.251 10.9186 117.384 11.4856 117.65 11.9616C117.916 12.4376 118.301 12.8016 118.805 13.0536C119.309 13.3056 119.911 13.4316 120.611 13.4316ZM128.827 7.4466V5.5776L131.263 4.5906L133.111 1.0416H135.547V4.2756H140.587V7.4466H135.547V10.9746C135.547 11.8426 135.722 12.4516 136.072 12.8016C136.422 13.1516 137.059 13.3266 137.983 13.3266C138.571 13.3266 139.089 13.2776 139.537 13.1796C139.999 13.0676 140.419 12.9276 140.797 12.7596V15.9936C140.377 16.1476 139.824 16.2876 139.138 16.4136C138.452 16.5396 137.745 16.6026 137.017 16.6026C135.687 16.6026 134.595 16.3996 133.741 15.9936C132.901 15.5876 132.278 15.0066 131.872 14.2506C131.466 13.4806 131.263 12.5846 131.263 11.5626V7.4466H128.827Z" fill="#FF8181"/>
</svg>
